inDegrees=no
num_controls=7
num_derivatives=13
num_iterations=74
num_multipliers=7
num_parameters=0
num_slacks=7
num_states=26
objective=0.351195
objective_accelerations=0.030379
objective_balance=0.006337
objective_effort=0.047442
objective_height=0.262535
objective_ligament=0.004502
solver_duration=1075.631579
status=Solve_Succeeded
success=true
DataType=double
version=3
OpenSimVersion=4.5
endheader
time	/jointset/ground_pelvis/pelvis_tilt/value	/jointset/ground_pelvis/pelvis_tx/value	/jointset/ground_pelvis/pelvis_ty/value	/jointset/hip_l/hip_flexion_l/value	/jointset/hip_l/hip_adduction_l/value	/jointset/hip_l/hip_rotation_l/value	/jointset/back/lumbar_extension/value	/jointset/patellofemoral_l/patellar_flexion_l/value	/jointset/knee_l/knee_flexion_l/value	/jointset/knee_l/knee_adduction_l/value	/jointset/knee_l/knee_rotation_l/value	/jointset/ankle_l/ankle_angle_l/value	/jointset/subtalar_l/subtalar_angle_l/value	/jointset/ground_pelvis/pelvis_tilt/speed	/jointset/ground_pelvis/pelvis_tx/speed	/jointset/ground_pelvis/pelvis_ty/speed	/jointset/hip_l/hip_flexion_l/speed	/jointset/hip_l/hip_adduction_l/speed	/jointset/hip_l/hip_rotation_l/speed	/jointset/back/lumbar_extension/speed	/jointset/patellofemoral_l/patellar_flexion_l/speed	/jointset/knee_l/knee_flexion_l/speed	/jointset/knee_l/knee_adduction_l/speed	/jointset/knee_l/knee_rotation_l/speed	/jointset/ankle_l/ankle_angle_l/speed	/jointset/subtalar_l/subtalar_angle_l/speed	/forceset/tau_hip_flexion_l	/forceset/tau_hip_adduction_l	/forceset/tau_hip_rotation_l	/forceset/tau_knee_flexion_l	/forceset/tau_ankle_angle_l	/forceset/tau_subtalar_angle_l	/forceset/tau_lumbar_extension	lambda_cid13_p0	lambda_cid13_p1	lambda_cid13_p2	lambda_cid13_p3	lambda_cid13_p4	lambda_cid13_p5	lambda_cid14_p0	/jointset/ground_pelvis/pelvis_tilt/accel	/jointset/ground_pelvis/pelvis_tx/accel	/jointset/ground_pelvis/pelvis_ty/accel	/jointset/hip_l/hip_flexion_l/accel	/jointset/hip_l/hip_adduction_l/accel	/jointset/hip_l/hip_rotation_l/accel	/jointset/back/lumbar_extension/accel	/jointset/patellofemoral_l/patellar_flexion_l/accel	/jointset/knee_l/knee_flexion_l/accel	/jointset/knee_l/knee_adduction_l/accel	/jointset/knee_l/knee_rotation_l/accel	/jointset/ankle_l/ankle_angle_l/accel	/jointset/subtalar_l/subtalar_angle_l/accel	gamma_cid13_p0	gamma_cid13_p1	gamma_cid13_p2	gamma_cid13_p3	gamma_cid13_p4	gamma_cid13_p5	gamma_cid14_p0
1.5	-0.2735966135768465	-0.04668218995951014	0.5391895095808226	1.780226241466341	-0.2405340486862744	0.04048763896198795	-0.4307737415581581	1.657349843017853	1.657349843017852	0.1114524794254678	0.1744770397107676	0.388408525049979	0.1216406023701776	-0.1293027054886565	-0.09032067872245629	0.9503743010379317	-2.411407548033919	-0.02617542461561466	-0.3143242123116519	0.1430912640430377	-2.864115546771496	-2.864115546771406	-0.496778630453778	0.0006881367534475247	-0.4535783185208631	-0.197447480341343	-0.284187469260059	0.003462679428924047	-0.03172657849690541	-0.5261951381144711	0.112106731779604	0.02116004220349566	0.296098125226432	-14.38132489816124	0.7232069769436424	-8.964526644007128	9.853916860424064	-792.4532721017594	-72.38297948079223	-0.04042915027350426	2.251143064551712	0.9082748057626664	2.729600065461735	-8.618970438908082	-0.2222443458660781	-0.8945696870386622	2.417971249114542	-9.573113128212739	-9.57311312821302	-1.843478760212224	-0.0465497130676678	-3.754282306595977	-1.486808223977622	-4.387358448107962e-07	1.592682493384658e-06	2.080871454991795e-06	7.879830212376057e-07	1.473310358706883e-07	4.142272336318867e-06	-2.326516670109534e-07
1.51	-0.2747763091711805	-0.04753841697712073	0.5488265153185671	1.7556865671213	-0.2408079826968559	0.03729545013074035	-0.4292183055886608	1.628233483010637	1.628233483010637	0.1063964417175063	0.1744826996255394	0.3836823771838305	0.1195900396762748	-0.1065221503598562	-0.08077245364927853	0.9767229556627893	-2.496138374407402	-0.0286727143128493	-0.324202678542128	0.1683128528882099	-2.958866743820583	-2.95886674382055	-0.5143446258535451	0.0004510319450041119	-0.4918688662784454	-0.2127438380715852	-0.2823829643923627	0.003632952649100423	-0.02956650471019407	-0.5158746990170655	0.1133302999214221	0.02128503546124316	0.2943589262622192	-13.31946121298817	0.1735108816539197	-8.523379111877031	7.88132974275986	-783.665216087874	-71.85615487515584	-0.04083637143471765	2.308595355384101	1.001145429931314	2.541965229069411	-8.341859163881093	-0.273153499706936	-1.048039469134474	2.621791156918086	-9.382583709895407	-9.382583709903592	-1.700628581861076	-0.01217834028198697	-3.899064556851806	-1.563678522235345	-5.746454541748821e-07	2.21423631753489e-06	3.04636442389459e-06	9.556316731739622e-07	2.173869885420001e-07	5.822554166481687e-06	-3.518654411251992e-07
1.52	-0.2757247824905592	-0.04829455192963243	0.5587179010161746	1.73031124042706	-0.2411088260480206	0.03400176576157057	-0.4274011460397716	1.598178318889603	1.598178318889603	0.1011672503251463	0.1744860109971199	0.3785667991308036	0.117383987610132	-0.08305825049745623	-0.0703022657026772	1.001250293010514	-2.578538017873392	-0.03155729273227578	-0.3346233198958999	0.1954359799213664	-3.051876369535217	-3.051876369535237	-0.5314093673333966	0.0002184281145886651	-0.5314643558965253	-0.2285453547893405	-0.2805784595246661	0.003803225869277113	-0.0274064309234816	-0.5055542599196597	0.1145538680632407	0.02141002871899132	0.2926197272980068	-12.28208243463984	-0.377334449300217	-8.075843680559842	5.984664640785295	-775.1909090881118	-71.382125537639	-0.04120290848595467	2.38781201127162	1.0926673804474	2.365336610035089	-8.152733857409368	-0.2997020903044471	-1.003004711697831	2.798278886711395	-9.224798861322018	-9.224798861321599	-1.743227976229094	-0.04564951746207346	-4.015270678695454	-1.58784002148021	-6.970138474501648e-07	2.812861221448695e-06	3.974305284810297e-06	1.114665807694213e-06	2.716964318944844e-07	7.267303050350831e-06	-4.547169993680552e-07
1.53	-0.2764355390116369	-0.04894143621373111	0.568845034020962	1.704123716620024	-0.2414405114157801	0.03059949271423511	-0.4253034131250912	1.567202216265001	1.567202216265003	0.0957714178788845	0.1744873947393376	0.3730494903376926	0.1150178185093825	-0.0590191558470241	-0.05892871507282504	1.023829778052166	-2.658553824203205	-0.03484013861018721	-0.3459441723535467	0.2244198085504797	-3.142998208025577	-3.142998208025572	-0.5476590924297901	6.68897433372148e-05	-0.572138092782309	-0.2447177864176476	-0.2773365796213839	0.003604786584160262	-0.02541577455280709	-0.4940662000055484	0.11613178902171	0.02160643543085515	0.2896088980306246	-10.99831525641435	-1.03004876529517	-7.580406109102955	3.844218837975366	-764.7713398088084	-70.88986970144759	-0.04153758544811442	2.42296278745473	1.181849268238583	2.15234084565164	-7.864154604509685	-0.3523715825690697	-1.213845529214645	2.994815681314023	-9.00386705123851	-9.003867051235002	-1.551233889759953	-3.266908577507881e-05	-4.114482124066968	-1.637549277050055	-8.049946986310939e-07	3.387124147611295e-06	4.862347030989722e-06	1.264547017459851e-06	3.092752090957148e-07	8.461798178782945e-06	-5.401837032475601e-07
